<svg width="52" height="52" viewBox="0 0 52 52" fill="none" xmlns="http://www.w3.org/2000/svg">
<path d="M49.6534 18.0487C52.6742 15.0279 51.2967 11.4996 49.6534 9.78373L42.4034 2.53373C39.3584 -0.487103 35.8542 0.890397 34.1384 2.53373L30.0301 6.66623H23.7709C19.1792 6.66623 16.5209 9.0829 15.1676 11.8621L4.43755 22.5921V32.2587L2.72172 33.9504C-0.299114 36.9954 1.07839 40.4996 2.72172 42.2154L9.97172 49.4654C11.2767 50.7704 12.6784 51.2537 14.0076 51.2537C15.7234 51.2537 17.2942 50.4079 18.2367 49.4654L24.7617 42.9162H33.4376C37.5459 42.9162 39.6242 40.3546 40.3734 37.8412C43.1042 37.1162 44.6026 35.0379 45.2067 33.0079C48.9526 32.0412 50.3542 28.4887 50.3542 25.9996V18.7496H48.9284L49.6534 18.0487ZM45.5209 25.9996C45.5209 27.0871 45.0617 28.4162 43.1042 28.4162H40.6876V30.8329C40.6876 31.9204 40.2284 33.2496 38.2709 33.2496H35.8542V35.6662C35.8542 36.7537 35.3951 38.0829 33.4376 38.0829H22.7801L14.8534 46.0096C14.1042 46.7104 13.6692 46.2996 13.4034 46.0337L6.17755 38.8321C5.47672 38.0829 5.88755 37.6479 6.15339 37.3821L9.27089 34.2404V24.5737L14.1042 19.7404V23.5829C14.1042 26.5071 16.0376 30.8329 21.3542 30.8329C26.6709 30.8329 28.6042 26.5071 28.6042 23.5829H45.5209V25.9996ZM46.2217 14.6171L42.1134 18.7496H23.7709V23.5829C23.7709 24.6704 23.3117 25.9996 21.3542 25.9996C19.3967 25.9996 18.9376 24.6704 18.9376 23.5829V16.3329C18.9376 15.2212 19.3484 11.4996 23.7709 11.4996H32.0117L37.5217 5.98956C38.2709 5.28873 38.7059 5.69956 38.9717 5.9654L46.1976 13.1671C46.8984 13.9162 46.4876 14.3512 46.2217 14.6171Z" fill="white"/>
</svg>
