<svg width="18" height="18" viewBox="0 0 18 18" fill="none" xmlns="http://www.w3.org/2000/svg">
<path fill-rule="evenodd" clip-rule="evenodd" d="M5.2689 1.51807C3.30632 1.51807 1.71533 3.10906 1.71533 5.07164V12.9288C1.71533 14.8914 3.30632 16.4824 5.2689 16.4824H13.126C15.0886 16.4824 16.6796 14.8914 16.6796 12.9288V5.07164C16.6796 3.10906 15.0886 1.51807 13.126 1.51807H5.2689ZM0.965332 5.07164C0.965332 2.69484 2.89211 0.768066 5.2689 0.768066H13.126C15.5028 0.768066 17.4296 2.69484 17.4296 5.07164V12.9288C17.4296 15.3056 15.5028 17.2324 13.126 17.2324H5.2689C2.89211 17.2324 0.965332 15.3056 0.965332 12.9288V5.07164ZM9.63746 6.22815C9.06158 6.14275 8.47343 6.24112 7.95667 6.50925C7.43991 6.77739 7.02086 7.20164 6.75912 7.72167C6.49737 8.24169 6.40627 8.83101 6.49876 9.4058C6.59125 9.98059 6.86263 10.5116 7.27429 10.9232C7.68596 11.3349 8.21695 11.6063 8.79173 11.6988C9.36652 11.7913 9.95584 11.7002 10.4759 11.4384C10.9959 11.1767 11.4201 10.7576 11.6883 10.2409C11.9564 9.7241 12.0548 9.13595 11.9694 8.56007C11.8823 7.97265 11.6085 7.42881 11.1886 7.0089C10.7687 6.58898 10.2249 6.31526 9.63746 6.22815ZM7.61124 5.84354C8.26802 5.50275 9.01554 5.37773 9.74747 5.48626C10.4941 5.59697 11.1853 5.94487 11.719 6.47857C12.2527 7.01226 12.6006 7.70346 12.7113 8.45006C12.8198 9.18199 12.6948 9.92951 12.354 10.5863C12.0132 11.2431 11.474 11.7757 10.8131 12.1083C10.1521 12.441 9.40312 12.5568 8.67258 12.4392C7.94204 12.3217 7.26717 11.9768 6.74396 11.4536C6.22075 10.9304 5.87584 10.2555 5.75828 9.52495C5.64073 8.79441 5.75652 8.04541 6.08919 7.38448C6.42186 6.72354 6.95446 6.18433 7.61124 5.84354ZM13.5189 4.30378C13.3118 4.30378 13.1439 4.47167 13.1439 4.67878C13.1439 4.88589 13.3118 5.05378 13.5189 5.05378H13.5289C13.736 5.05378 13.9039 4.88589 13.9039 4.67878C13.9039 4.47167 13.736 4.30378 13.5289 4.30378H13.5189Z" fill="black"/>
</svg>
