<svg width="18" height="18" viewBox="0 0 18 18" fill="none" xmlns="http://www.w3.org/2000/svg">
<path fill-rule="evenodd" clip-rule="evenodd" d="M1.23291 2.8126C1.23291 2.1069 1.80208 1.5376 2.50077 1.5376C3.19945 1.5376 3.76862 2.1069 3.76862 2.8126C3.76862 3.51829 3.19945 4.0876 2.50077 4.0876C1.80208 4.0876 1.23291 3.51829 1.23291 2.8126ZM2.50077 0.787598C1.3848 0.787598 0.48291 1.69575 0.48291 2.8126C0.48291 3.92944 1.3848 4.8376 2.50077 4.8376C3.61673 4.8376 4.51862 3.92944 4.51862 2.8126C4.51862 1.69575 3.61673 0.787598 2.50077 0.787598ZM12.3579 6.4876C11.1508 6.4876 9.99271 6.96921 9.13862 7.82701C8.28448 8.68486 7.80434 9.84871 7.80434 11.0626V16.4626H10.3401V11.0626C10.3401 10.5261 10.5523 10.0112 10.9305 9.63128C11.3088 9.25134 11.8222 9.0376 12.3579 9.0376C12.8936 9.0376 13.407 9.25134 13.7853 9.63128C14.1636 10.0112 14.3758 10.5261 14.3758 11.0626V16.4626H16.9115V11.0626C16.9115 9.84871 16.4313 8.68486 15.5772 7.82701C14.7231 6.96921 13.5651 6.4876 12.3579 6.4876ZM12.3579 5.7376C10.9508 5.7376 9.60163 6.29902 8.60714 7.29783C7.61271 8.29658 7.05434 9.65084 7.05434 11.0626V16.8376C7.05434 17.0447 7.22223 17.2126 7.42934 17.2126H10.7151C10.9222 17.2126 11.0901 17.0447 11.0901 16.8376V11.0626C11.0901 10.7239 11.224 10.3994 11.462 10.1605C11.6999 9.92153 12.0222 9.7876 12.3579 9.7876C12.6936 9.7876 13.016 9.92153 13.2538 10.1605C13.4918 10.3994 13.6258 10.7239 13.6258 11.0626V16.8376C13.6258 17.0447 13.7937 17.2126 14.0008 17.2126H17.2865C17.4936 17.2126 17.6615 17.0447 17.6615 16.8376V11.0626C17.6615 9.65084 17.1031 8.29658 16.1087 7.29783C15.1142 6.29902 13.765 5.7376 12.3579 5.7376ZM0.48291 6.9376C0.48291 6.73049 0.650803 6.5626 0.857909 6.5626H4.14362C4.35073 6.5626 4.51862 6.73049 4.51862 6.9376V16.8376C4.51862 17.0447 4.35073 17.2126 4.14362 17.2126H0.857909C0.650803 17.2126 0.48291 17.0447 0.48291 16.8376V6.9376ZM1.23291 7.3126V16.4626H3.76862V7.3126H1.23291Z" fill="black"/>
</svg>
