<svg width="19" height="18" viewBox="0 0 19 18" fill="none" xmlns="http://www.w3.org/2000/svg">
<g clip-path="url(#clip0_18398_160)">
<path d="M17.9473 2.25022C17.2291 2.75683 16.4339 3.1443 15.5923 3.39772C15.1406 2.87835 14.5403 2.51024 13.8725 2.34316C13.2048 2.17609 12.5019 2.21811 11.8588 2.46356C11.2158 2.709 10.6636 3.14602 10.277 3.71551C9.89041 4.28499 9.68804 4.95947 9.69727 5.64772V6.39772C8.37924 6.43189 7.07322 6.13958 5.89552 5.5468C4.71782 4.95403 3.705 4.07919 2.94727 3.00022C2.94727 3.00022 -0.0527347 9.75022 6.69727 12.7502C5.15266 13.7987 3.31263 14.3244 1.44727 14.2502C8.19727 18.0002 16.4473 14.2502 16.4473 5.62522C16.4466 5.41631 16.4265 5.20791 16.3873 5.00272C17.1527 4.24784 17.6929 3.29475 17.9473 2.25022V2.25022Z" stroke="black" stroke-width="0.75" stroke-linecap="round" stroke-linejoin="round"/>
</g>
<defs>
<clipPath id="clip0_18398_160">
<rect width="18" height="18" fill="white" transform="translate(0.697266)"/>
</clipPath>
</defs>
</svg>
